<svg xmlns="http://www.w3.org/2000/svg" data-name="Layer 1" viewBox="15.6 21.5 268.8 169.6"><path d="m150 73 27 27a3 3 0 1 1-5 5l-22-22-22 22a3 3 0 1 1-5-5l27-27Z" style="fill:#e4087e;stroke-width:0"/><path d="m191 85-22-21 22-22a3 3 0 1 0-5-5l-26 27 26 26a3 3 0 1 0 5-5m11-55a3 3 0 1 0-7 0 3 3 0 0 0 7 0" style="fill:#009879;stroke-width:0"/><path d="M105 98a3 3 0 1 0-7 0 3 3 0 0 0 7 0m35-34-26-27a3 3 0 1 0-5 5l22 22-22 21a3 3 0 1 0 5 5l26-26Z" style="fill:#aec936;stroke-width:0"/><path d="m150 54-27-27a3 3 0 1 1 5-5l22 22 22-21a3 3 0 1 1 5 4l-27 27Z" style="fill:#1d9ed9;stroke-width:0"/><path d="M284 159v-32h-5l-12 21-13-21h-5v32h6v-21l10 18h3l11-18v21h5Zm-61 1c4 0 8-2 10-4 3-3 4-6 4-11v-18h-6v18c0 6-3 9-8 9s-9-3-9-9v-18h-6v18c0 5 2 8 4 11 3 2 6 4 11 4m-33-1h6v-32h-6v32Zm-18-32v22l-18-22h-5v32h6v-22l18 22h5v-32h-6Zm-51 27v-9h15v-5h-15v-8h17v-5h-24v32h25v-5h-18Zm-24-1-6 1-6-1-5-4-1-6 1-6 5-4 6-1 9 3 3-3-5-4-8-2-9 2a16 16 0 0 0-8 15l2 9 6 6 9 2 7-1 6-3v-13h-6v10Zm-40-26v22l-18-22h-5v32h6v-22l18 22h5v-32h-6Zm-41 32h6v-32h-6v32Zm12 25v2H16v-16h12v2h-9v5h8v2h-8v5h9zm17-10v12h-3v-1l-4 1c-3 0-5-1-5-5v-7h3v6c0 3 1 4 3 4s3-1 3-4v-6h3Zm12-1v3c-2 0-4 1-4 4v6h-3v-12h3v1l4-2m3 7c0-4 3-7 7-7s7 3 7 7-3 6-7 6-7-2-7-6m11 0c0-3-2-4-4-4s-4 1-4 4 2 4 4 4 4-2 4-4m20 0c0 4-3 6-6 6l-4-1v6h-3v-17h3v1l4-2c4 0 6 3 6 7m-3 0c0-3-1-4-4-4s-3 1-3 4 1 4 3 4 4-2 4-4m19 1H97c1 2 2 3 4 3l4-1 1 1c-1 2-3 2-5 2-4 0-7-2-7-6s3-7 7-7 6 3 6 7v1m-10-2h7c0-2-1-3-3-3s-4 1-4 3m25 0v7h-3v-1l-4 1c-3 0-5-1-5-3s1-4 5-4h4c0-2-1-3-4-3l-3 1-2-2 6-2c4 0 6 2 6 6m-3 3v-1h-3c-2 0-3 1-3 2l2 1c1 0 3 0 4-2m20-3v7h-3v-7c0-2-1-3-3-3s-3 1-3 4v6h-3v-12h2v1l5-2c3 0 5 2 5 6m13 0v-9h3v9c0 3 2 5 4 5s5-2 5-5v-9h3v9c0 5-3 8-8 8s-7-3-7-8m33 0v7h-3v-7c0-2-2-3-3-3-3 0-4 1-4 4v6h-3v-12h3v1l4-2c3 0 6 2 6 6m4-9 2-2 2 2-2 1-2-1m1 4h3v12h-3v-12Zm20 0-6 12h-3l-5-12h3l4 9 4-9h3zm14 7h-10c1 2 2 3 4 3l4-1 1 1c-1 2-3 2-5 2-4 0-7-2-7-6s3-7 7-7 6 3 6 7v1m-10-2h7c0-2-1-3-3-3s-3 1-4 3m22-6v3h-1c-2 0-4 1-4 4v6h-3v-12h3v1l5-2m2 12 1-2 5 1 2-1c0-3-8-1-8-6 0-2 3-4 6-4l5 1-1 3-4-1-3 1c0 3 8 1 8 5 0 3-2 4-6 4l-5-1m15-15c0-1 0-2 2-2s1 1 1 2l-1 1-2-1m0 4h3v12h-3v-12Zm16 12h-3c-3 0-4-1-4-4v-6h-3v-2h3v-3h3v3h3v2h-3v6l1 2 2-1 1 3Zm15-12-6 13c-1 3-3 4-5 4l-3-1 1-2 2 1 2-2 1-1-6-12h3l4 9 4-9h3Z" style="fill:#293133;stroke-width:0"/></svg>