<?xml version="1.0" encoding="UTF-8"?>
<svg id="Layer_1" data-name="Layer 1" xmlns="http://www.w3.org/2000/svg" viewBox="0 0 197.1 89">
  <defs>
    <style>
      .cls-1 {
        fill: #000;
      }

      .cls-1, .cls-2, .cls-3, .cls-4 {
        stroke-width: 0px;
      }

      .cls-2 {
        fill: #231f20;
      }

      .cls-3 {
        fill: #fff;
      }

      .cls-4 {
        fill: #16a296;
      }
    </style>
  </defs>
  <g>
    <path class="cls-4" d="M9.2,84.7c1.3,0,2.3-.2,3-.7.7-.5,1.1-1.1,1.1-2s-.2-1.1-.7-1.5-1-.7-1.8-.9c-.7-.2-1.5-.4-2.4-.6-.9-.2-1.8-.4-2.6-.7-.9-.3-1.7-.7-2.4-1.1-.7-.5-1.3-1.1-1.8-2-.5-.9-.7-1.9-.7-3.1,0-2,.8-3.7,2.3-5.1,1.5-1.4,3.6-2,6.1-2s4.7.7,6.2,2.2c1.5,1.5,2.3,3.3,2.4,5.5h-4.6c0-1-.4-1.9-1.1-2.5s-1.7-1-2.9-1-2,.2-2.7.7c-.7.5-1,1.1-1,1.9s.2,1.1.7,1.5,1,.7,1.8.9c.7.2,1.5.4,2.4.6.9.2,1.8.4,2.7.7.9.3,1.7.7,2.4,1.1.7.5,1.3,1.1,1.8,2s.7,1.9.7,3.2c0,2.1-.8,3.8-2.5,5.1-1.7,1.3-3.9,2-6.6,2s-2.9-.2-4.1-.7c-1.2-.4-2.1-1-2.8-1.8-.7-.8-1.2-1.6-1.5-2.5s-.5-1.8-.6-2.8h4.7c0,1,.5,1.9,1.2,2.5.8.7,1.9,1,3.3,1Z"/>
    <path class="cls-4" d="M35.2,65.5h5.5l-8.5,15v8.1h-4.7v-8.1l-8.5-15h5.5l5.3,10.2h0l5.4-10.2Z"/>
    <path class="cls-4" d="M47,65.5l6.8,8.9,6.8-8.9h4.3v23h-4.5v-15.7l-6.5,8.3h-.1l-6.5-8.3v15.7h-4.5v-23h4.3Z"/>
    <path class="cls-4" d="M74.4,79.8v8.7h-4.7v-23h9.9c2.6,0,4.6.7,5.9,2,1.3,1.3,1.9,3.1,1.9,5.2s-.7,3.8-2,5.2-3.3,2-5.9,2h-5.1ZM74.4,75.4h5.1c1,0,1.8-.2,2.3-.8.5-.5.8-1.2.8-2s-.3-1.6-.8-2.1-1.3-.8-2.3-.8h-5.1v5.6Z"/>
    <path class="cls-4" d="M110.1,68.4c2.2,2.3,3.4,5.1,3.4,8.6s-1.1,6.3-3.4,8.6-5.1,3.4-8.6,3.4-6.4-1.1-8.6-3.4-3.4-5.1-3.4-8.6,1.1-6.3,3.4-8.6,5.1-3.4,8.6-3.4c3.5,0,6.4,1.1,8.6,3.4ZM106.5,82.4c1.3-1.4,1.9-3.2,1.9-5.4s-.6-4.1-1.9-5.4c-1.3-1.4-3-2.1-5-2.1s-3.7.7-5,2.1-1.9,3.2-1.9,5.4.6,4.1,1.9,5.4c1.3,1.4,3,2.1,5,2.1s3.7-.7,5-2.1Z"/>
    <path class="cls-4" d="M125.1,84.7c1.3,0,2.3-.2,3-.7.7-.5,1.1-1.1,1.1-2s-.2-1.1-.7-1.5-1-.7-1.8-.9c-.7-.2-1.5-.4-2.4-.6-.9-.2-1.8-.4-2.6-.7-.9-.3-1.7-.7-2.4-1.1-.7-.5-1.3-1.1-1.8-2-.4-.9-.7-1.9-.7-3.1,0-2,.8-3.7,2.3-5.1,1.5-1.4,3.6-2,6.1-2s4.7.7,6.2,2.2c1.5,1.5,2.3,3.3,2.4,5.5h-4.6c0-1-.4-1.9-1.1-2.5s-1.7-1-2.9-1-2,.2-2.7.7c-.7.5-1,1.1-1,1.9s.2,1.1.7,1.5,1.1.7,1.8.9c.7.2,1.6.4,2.4.6.9.2,1.8.4,2.7.7s1.7.7,2.4,1.1c.7.5,1.3,1.1,1.8,2s.7,1.9.7,3.2c0,2.1-.8,3.8-2.5,5.1-1.7,1.3-3.9,2-6.6,2s-2.9-.2-4.1-.7-2.1-1-2.8-1.8c-.7-.8-1.2-1.6-1.5-2.5s-.5-1.8-.6-2.8h4.7c0,1,.5,1.9,1.2,2.5.8.7,1.9,1,3.3,1Z"/>
    <path class="cls-4" d="M142.6,65.5v23h-4.7v-23h4.7Z"/>
    <path class="cls-4" d="M164.1,86.4c-1.9,1.7-4.2,2.6-7,2.6s-5.1-.9-7-2.6c-1.9-1.7-2.8-4.2-2.8-7.4v-13.6h4.7v13.7c0,1.7.4,3,1.2,4s2.1,1.5,3.8,1.5,2.9-.5,3.8-1.5,1.2-2.3,1.2-4v-13.7h4.7v13.6c0,3.2-.9,5.7-2.8,7.4Z"/>
    <path class="cls-4" d="M176.1,65.5l6.8,8.9,6.8-8.9h4.4v23h-4.5v-15.7l-6.5,8.3h-.1l-6.5-8.3v15.7h-4.5v-23h4.3Z"/>
  </g>
  <g>
    <path class="cls-2" d="M10.5,52.7H1.3v-21h8.9c2.3,0,4,.5,5.2,1.6,1.2,1.1,1.8,2.5,1.8,4.2s-.3,2-.8,2.8-1.2,1.4-2.1,1.8c1,.4,1.8,1,2.3,1.8.6.8.9,1.8.9,2.9,0,1.9-.6,3.3-1.8,4.4-1.2,1.1-2.9,1.6-5.1,1.6ZM10.1,35.5h-4.6v4.6h4.6c.8,0,1.5-.2,2-.6.5-.4.7-.9.7-1.7s-.2-1.2-.7-1.6c-.4-.4-1.1-.6-2-.6ZM10.4,44h-4.9v4.8h4.9c1.8,0,2.7-.8,2.7-2.4s-.2-1.3-.7-1.7c-.4-.4-1.1-.7-2-.7Z"/>
    <path class="cls-2" d="M36.1,48.7v4h-15.1v-21h15.1v4h-10.8v4.4h10.3v4h-10.3v4.7h10.8Z"/>
    <path class="cls-2" d="M46.9,49.2c1.2,0,2.1-.2,2.7-.6.7-.4,1-1,1-1.8s-.2-1-.6-1.4-.9-.6-1.6-.8-1.4-.4-2.2-.6-1.6-.4-2.4-.6c-.8-.3-1.5-.6-2.2-1s-1.2-1-1.6-1.8-.6-1.8-.6-2.8c0-1.8.7-3.4,2.1-4.6s3.2-1.9,5.6-1.9,4.2.7,5.6,2c1.4,1.3,2.1,3,2.2,5h-4.2c0-.9-.4-1.7-1-2.3s-1.5-.9-2.6-.9-1.8.2-2.4.7c-.6.4-.9,1-.9,1.7s.2,1,.6,1.4c.4.4,1,.6,1.6.8s1.4.4,2.2.6,1.6.4,2.4.7c.8.3,1.6.6,2.2,1.1s1.2,1,1.6,1.9c.4.8.6,1.8.6,2.9,0,1.9-.8,3.4-2.3,4.6-1.5,1.2-3.5,1.8-6,1.8s-2.6-.2-3.7-.6-1.9-.9-2.5-1.6-1.1-1.4-1.4-2.2c-.3-.8-.5-1.7-.5-2.6h4.3c0,.9.4,1.7,1.1,2.3.7.6,1.7.9,2.9.9Z"/>
    <path class="cls-2" d="M72.3,31.7v4.1h-5.8v16.9h-4.3v-16.9h-5.8v-4.1s15.8,0,15.8,0Z"/>
    <path class="cls-2" d="M86.6,31.7v21h-4.3v-21h4.3Z"/>
    <path class="cls-2" d="M95.4,53c-1.7,0-3.1-.4-4-1.3-.9-.9-1.4-2-1.4-3.5s.5-2.4,1.5-3.2c1-.8,2.5-1.4,4.5-1.7l4.1-.6h0c0-1.7-.9-2.4-2.8-2.4s-2.7.6-2.9,1.9h-4.1c.1-1.5.8-2.8,1.9-3.8,1.1-1,2.8-1.5,5.1-1.5s3.9.5,5.1,1.5c1.1,1,1.7,2.4,1.7,4.3v7.3c0,1.2.1,2.1.4,2.8h-4.1s0,0,0-.2,0-.4,0-.6c0-.3,0-.6,0-.9-1,1.4-2.6,2.1-4.9,2.1ZM100.1,45.7l-3.7.6c-1.6.3-2.4.9-2.4,1.8s.8,1.6,2.3,1.6,2.1-.3,2.8-.9c.6-.6,1-1.5,1-2.5v-.6h0Z"/>
    <path class="cls-2" d="M113.4,53c-4.2,0-6.4-1.8-6.7-5.4h4.3c0,.6.3,1.1.7,1.4.4.4,1.1.6,1.9.6s1.4-.1,1.8-.4c.4-.3.6-.6.6-1s-.3-.8-.9-1.1-1.3-.4-2.1-.6c-.8-.1-1.7-.3-2.5-.6-.9-.2-1.6-.7-2.2-1.4s-.9-1.6-.9-2.8.6-2.6,1.7-3.6c1.1-1,2.6-1.5,4.5-1.5s3.7.5,4.7,1.6c1,1.1,1.6,2.3,1.7,3.6h-4.1c0-.5-.3-1-.7-1.3-.4-.4-1-.5-1.7-.5s-1.2.1-1.6.4c-.4.3-.6.6-.6,1.1s.3.8.9,1c.6.2,1.3.4,2.1.5.8.1,1.7.3,2.5.6s1.6.7,2.1,1.4c.6.7.9,1.7.9,2.8s-.6,2.6-1.8,3.6c-1.2.9-2.8,1.4-4.8,1.4Z"/>
    <path class="cls-2" d="M126.6,34.4c-.5.5-1.1.7-1.8.7s-1.4-.2-1.8-.7-.7-1.1-.7-1.8.2-1.3.7-1.8c.5-.5,1.1-.7,1.8-.7s1.4.2,1.8.7.7,1.1.7,1.8-.2,1.3-.7,1.8ZM122.7,52.7v-15.5h4.2v15.5h-4.2Z"/>
    <g>
      <path class="cls-2" d="M115.4,57.6c-.3.5-.7.8-1.3.9-.6.1-1.1,0-1.5-.4-.4-.3-.7-.8-.8-1.4-.1-.6,0-1.2.2-1.7.3-.5.7-.8,1.3-.9.6-.1,1.1,0,1.5.4s.7.8.8,1.5c.1.6,0,1.2-.3,1.6Z"/>
      <path class="cls-2" d="M112.5,58.7c-.1.5-.3,1.2-.7,1.8-.6.9-1.2,1.1-1.2,1.2.1.3,3.8-1,4.7-3.6.1-.3.3-.9,0-1.3-.3-.5-1.2-.5-2.3-.1"/>
    </g>
  </g>
  <g>
    <path class="cls-1" d="M189.1,49.5c-1-1.1-2-2.2-3.1-3.3,3.7-3.9,5.9-8.6,6.5-14.1,1.5,0,3,.1,4.5.2-.7,6.7-3.4,12.4-8,17.2Z"/>
    <path class="cls-1" d="M150.5,45.7c-1,1.1-1.9,2.2-3,3.4-4.7-4.6-7.5-10.2-8.4-16.9,1.5-.1,3-.2,4.5-.3.4,2.6,1.1,5.2,2.3,7.5,1.2,2.4,2.8,4.5,4.6,6.3Z"/>
    <path class="cls-1" d="M183.8,48.3c1,1.1,2,2.2,3,3.3-5.2,4.2-11.1,6.4-17.8,6.5,0-1.5.1-2.9.2-4.5,5.4-.2,10.3-1.9,14.6-5.3Z"/>
    <path class="cls-1" d="M148.8,50.3c1.1-1.1,2.1-2.1,3.2-3.1,4,3.6,8.8,5.6,14.2,6.1,0,1.5,0,2.9,0,4.5-6.7-.5-12.5-3-17.4-7.4Z"/>
    <path class="cls-1" d="M184,43.9c-1-1.1-2-2.2-2.9-3.2.9-1.4,1.9-2.7,2.5-4.2.7-1.5,1.1-3.1,1.6-4.7,1.3,0,2.8.1,4.2.2.1,3.2-2.7,9.4-5.5,11.9Z"/>
    <path class="cls-1" d="M152.5,43.3c-2.6-2.1-5.7-8.2-5.8-11.7,1.4,0,2.9-.2,4.4-.3.6,3.3,2,6.2,4.3,8.7-1,1.1-1.9,2.2-2.9,3.4Z"/>
    <path class="cls-1" d="M178.7,42.7c1,1.1,2,2.2,3,3.3-3.6,2.8-7.7,4.3-12.4,4.5,0-1.5.1-3,.2-4.5,3.4-.2,6.4-1.3,9.2-3.4Z"/>
    <path class="cls-1" d="M157.4,41.9c2.6,2.1,5.6,3.4,8.9,3.8,0,1.5,0,2.9,0,4.5-4.6-.4-8.6-2.1-12.1-5.2,1.1-1.1,2.1-2.1,3.2-3.1Z"/>
    <path class="cls-1" d="M176,35.1c.6-1.2,1.1-2.4,1.7-3.6,1.4,0,2.8.1,4.4.2-.4,2.6-1.4,4.8-3.1,6.7-1-1.1-2-2.2-3-3.2Z"/>
    <path class="cls-1" d="M155.2,30.5c1.5,0,3,.1,4.4.2.5,1.3.9,2.5,1.4,3.8-1,.9-2.1,1.9-3.2,3-1.5-2-2.3-4.3-2.5-6.9Z"/>
    <path class="cls-1" d="M169.8,38.7c1.3-.5,2.5-.9,3.7-1.4.9,1,1.9,2.1,3,3.2-2,1.4-4.3,2.3-6.9,2.5,0-1.5.1-3,.2-4.4Z"/>
    <path class="cls-1" d="M163.2,36.9c1.1.5,2.3,1.1,3.6,1.7,0,1.3-.1,2.8-.2,4.4-2.6-.4-4.8-1.4-6.7-3.1,1.1-1,2.2-2,3.3-3Z"/>
    <path class="cls-1" d="M168.4,34.2c-1,0-1.9-.9-1.9-1.9s.9-1.9,1.9-1.8c1,0,1.9.9,1.9,1.9,0,1-.9,1.9-1.9,1.8Z"/>
    <circle class="cls-4" cx="168.3" cy="28.6" r="15.2"/>
    <path class="cls-3" d="M173.5,28c-.1,2.2-1.8,4.3-3.8,4.8-.8.2-1,.6-1,1.3,0,.1,0,.2,0,.4,0,2.1-.4,2.1,1.8,2.2.4,0,1,0,.9.6,0,.6-.6.5-1,.5-1.7,0-3.4-.2-5.1-.2-.4,0-.8-.1-.8-.6,0-.6.5-.5.9-.5.7,0,1.6.4,2-.2.5-.8.2-1.8.3-2.7,0-.6-.5-.6-.9-.7-2.1-.6-3.6-2.7-3.5-4.9,0-.4-.1-1,.4-1.1.7,0,.6.6.6,1,.2,2.1,1.1,3.4,3,3.9,2.2.7,4.6-.9,5-3.2,0-.2,0-.4,0-.6.1-.4.2-.9.7-.8.5.1.5.6.5.9Z"/>
    <path class="cls-3" d="M168.3,30.5h0c-2,0-3.5-1.8-3.5-3.8l.2-3.8c0-2,1.8-3.5,3.8-3.5h0c2,0,3.5,1.8,3.5,3.8l-.2,3.8c0,2-1.8,3.5-3.8,3.5Z"/>
    <circle class="cls-4" cx="143.5" cy="23.7" r="2.6"/>
    <circle class="cls-4" cx="146.2" cy="13.2" r="2.6"/>
    <circle class="cls-4" cx="154.1" cy="6.6" r="2.6"/>
    <circle class="cls-4" cx="164.6" cy="2.6" r="2.6"/>
    <circle class="cls-4" cx="177.1" cy="3.2" r="2.5"/>
    <circle class="cls-4" cx="185.5" cy="7.7" r="2.5"/>
    <circle class="cls-4" cx="191.1" cy="15.6" r="2.5"/>
    <circle class="cls-4" cx="192.9" cy="24.4" r="2.5"/>
  </g>
</svg>