<svg version="1.1" id="Layer_1" xmlns="http://www.w3.org/2000/svg" xmlns:xlink="http://www.w3.org/1999/xlink" x="0px" y="0px" style="enable-background:new 0 0 300 300;" xml:space="preserve" viewBox="50.85 89.98 197.13 89.03">
<style type="text/css">
	.st0{fill:#F17B2A;}
	.st1{fill:#231F20;}
	.st2{fill:#FFFFFF;}
</style>
<g>
	<g>
		<path class="st0" d="M60.03,174.76c1.28,0,2.27-0.23,2.99-0.7c0.71-0.46,1.07-1.12,1.07-1.96c0-0.61-0.23-1.1-0.68-1.49    c-0.45-0.39-1.04-0.69-1.77-0.91c-0.72-0.22-1.53-0.42-2.4-0.6c-0.88-0.18-1.75-0.42-2.63-0.71c-0.88-0.29-1.68-0.67-2.4-1.14    c-0.73-0.46-1.31-1.14-1.77-2.01c-0.45-0.88-0.68-1.92-0.68-3.13c0-2.01,0.76-3.7,2.27-5.06c1.51-1.36,3.56-2.04,6.13-2.04    c2.6,0,4.66,0.74,6.18,2.21c1.53,1.47,2.32,3.3,2.39,5.48h-4.64c-0.04-1.04-0.42-1.88-1.12-2.52c-0.7-0.64-1.66-0.96-2.87-0.96    c-1.1,0-1.99,0.24-2.66,0.73c-0.67,0.49-1.01,1.11-1.01,1.87c0,0.63,0.23,1.14,0.68,1.53c0.45,0.39,1.05,0.69,1.78,0.91    c0.74,0.22,1.55,0.42,2.43,0.6c0.89,0.18,1.77,0.43,2.66,0.73c0.89,0.3,1.7,0.69,2.43,1.15c0.74,0.47,1.33,1.14,1.78,2.03    c0.45,0.89,0.68,1.95,0.68,3.18c0,2.08-0.84,3.77-2.51,5.08c-1.68,1.31-3.88,1.96-6.6,1.96c-1.54,0-2.89-0.22-4.06-0.66    c-1.17-0.44-2.09-1.04-2.76-1.8c-0.67-0.76-1.17-1.58-1.51-2.47c-0.34-0.89-0.52-1.83-0.57-2.82h4.67    c0.07,1.02,0.48,1.86,1.23,2.53C57.54,174.42,58.62,174.76,60.03,174.76z"/>
		<path class="st0" d="M86.09,155.48h5.48l-8.5,14.99v8.05h-4.74v-8.05l-8.5-14.99h5.48l5.35,10.16h0.06L86.09,155.48z"/>
		<path class="st0" d="M97.83,155.48l6.75,8.92l6.75-8.92h4.35v23.04h-4.54v-15.71l-6.49,8.34h-0.13l-6.49-8.34v15.71h-4.54v-23.04    H97.83z"/>
		<path class="st0" d="M125.29,169.79v8.73h-4.74v-23.04h9.86c2.64,0,4.61,0.66,5.91,1.98c1.3,1.32,1.95,3.05,1.95,5.19    c0,2.12-0.67,3.84-2,5.16c-1.33,1.32-3.28,1.98-5.86,1.98H125.29z M125.29,165.44h5.13c1.04,0,1.82-0.25,2.34-0.75    c0.52-0.5,0.78-1.18,0.78-2.04c0-0.86-0.26-1.55-0.78-2.06c-0.52-0.51-1.3-0.76-2.34-0.76h-5.13V165.44z"/>
		<path class="st0" d="M160.92,158.4c2.25,2.27,3.37,5.14,3.37,8.6c0,3.46-1.12,6.33-3.37,8.6c-2.25,2.27-5.12,3.41-8.6,3.41    c-3.48,0-6.35-1.14-8.6-3.41c-2.25-2.27-3.37-5.14-3.37-8.6c0-3.46,1.12-6.33,3.37-8.6c2.25-2.27,5.12-3.41,8.6-3.41    C155.8,155,158.67,156.13,160.92,158.4z M157.35,172.44c1.3-1.37,1.95-3.19,1.95-5.44s-0.65-4.06-1.95-5.44    c-1.3-1.37-2.97-2.06-5.03-2.06c-2.06,0-3.73,0.69-5.03,2.06c-1.3,1.37-1.95,3.19-1.95,5.44s0.65,4.06,1.95,5.44    c1.3,1.37,2.97,2.06,5.03,2.06C154.37,174.5,156.05,173.81,157.35,172.44z"/>
		<path class="st0" d="M175.94,174.76c1.28,0,2.27-0.23,2.99-0.7c0.71-0.46,1.07-1.12,1.07-1.96c0-0.61-0.23-1.1-0.68-1.49    c-0.45-0.39-1.04-0.69-1.77-0.91c-0.72-0.22-1.53-0.42-2.4-0.6c-0.88-0.18-1.75-0.42-2.63-0.71c-0.88-0.29-1.68-0.67-2.4-1.14    c-0.73-0.46-1.31-1.14-1.77-2.01c-0.45-0.88-0.68-1.92-0.68-3.13c0-2.01,0.76-3.7,2.27-5.06c1.51-1.36,3.56-2.04,6.13-2.04    c2.6,0,4.66,0.74,6.18,2.21c1.53,1.47,2.32,3.3,2.39,5.48H180c-0.04-1.04-0.42-1.88-1.12-2.52c-0.7-0.64-1.66-0.96-2.87-0.96    c-1.1,0-1.99,0.24-2.66,0.73c-0.67,0.49-1.01,1.11-1.01,1.87c0,0.63,0.23,1.14,0.68,1.53c0.45,0.39,1.05,0.69,1.78,0.91    c0.74,0.22,1.55,0.42,2.43,0.6c0.89,0.18,1.77,0.43,2.66,0.73c0.89,0.3,1.7,0.69,2.43,1.15c0.74,0.47,1.33,1.14,1.78,2.03    c0.45,0.89,0.68,1.95,0.68,3.18c0,2.08-0.84,3.77-2.51,5.08c-1.68,1.31-3.88,1.96-6.6,1.96c-1.54,0-2.89-0.22-4.06-0.66    c-1.17-0.44-2.09-1.04-2.76-1.8c-0.67-0.76-1.17-1.58-1.51-2.47c-0.34-0.89-0.52-1.83-0.57-2.82h4.67    c0.07,1.02,0.48,1.86,1.23,2.53C173.45,174.42,174.53,174.76,175.94,174.76z"/>
		<path class="st0" d="M193.43,155.48v23.04h-4.74v-23.04H193.43z"/>
		<path class="st0" d="M214.98,176.45c-1.86,1.71-4.19,2.56-6.98,2.56c-2.79,0-5.12-0.85-6.98-2.56c-1.86-1.71-2.79-4.18-2.79-7.4    v-13.56h4.74v13.69c0,1.69,0.42,3.02,1.25,3.99c0.83,0.97,2.09,1.46,3.78,1.46c1.69,0,2.95-0.49,3.78-1.46    c0.83-0.97,1.25-2.3,1.25-3.99v-13.69h4.74v13.56C217.77,172.27,216.84,174.74,214.98,176.45z"/>
		<path class="st0" d="M226.92,155.48l6.75,8.92l6.75-8.92h4.35v23.04h-4.54v-15.71l-6.49,8.34h-0.13l-6.49-8.34v15.71h-4.54v-23.04    H226.92z"/>
	</g>
	<g>
		<path class="st1" d="M61.4,142.67h-9.25v-20.99h8.87c2.31,0,4.04,0.54,5.22,1.61c1.17,1.07,1.76,2.46,1.76,4.15    c0,1.08-0.26,2.02-0.78,2.82c-0.52,0.8-1.24,1.4-2.14,1.82c0.99,0.37,1.77,0.97,2.35,1.77c0.58,0.81,0.87,1.76,0.87,2.87    c0,1.85-0.59,3.31-1.77,4.36C65.33,142.14,63.62,142.67,61.4,142.67z M60.98,125.55h-4.64v4.55h4.64c0.85,0,1.5-0.19,1.97-0.58    c0.46-0.38,0.69-0.95,0.69-1.7c0-0.67-0.22-1.22-0.67-1.64C62.54,125.77,61.87,125.55,60.98,125.55z M61.28,134.01h-4.94v4.79    h4.94c1.77,0,2.66-0.8,2.66-2.39c0-0.73-0.22-1.31-0.67-1.74C62.83,134.22,62.17,134.01,61.28,134.01z"/>
		<path class="st1" d="M86.91,138.71v3.96H71.8v-20.99h15.1v3.96H76.12v4.4h10.35v3.96H76.12v4.7H86.91z"/>
		<path class="st1" d="M97.76,139.24c1.16,0,2.07-0.21,2.72-0.64c0.65-0.42,0.98-1.02,0.98-1.79c0-0.55-0.21-1.01-0.62-1.36    c-0.41-0.35-0.95-0.63-1.61-0.83c-0.66-0.2-1.39-0.38-2.19-0.55c-0.8-0.17-1.6-0.38-2.39-0.65c-0.8-0.27-1.53-0.61-2.19-1.03    c-0.66-0.42-1.2-1.03-1.61-1.83c-0.41-0.8-0.62-1.75-0.62-2.85c0-1.83,0.69-3.37,2.07-4.61c1.38-1.24,3.24-1.86,5.59-1.86    c2.36,0,4.24,0.67,5.63,2.01c1.39,1.34,2.11,3.01,2.17,5h-4.23c-0.04-0.95-0.38-1.71-1.02-2.29c-0.64-0.58-1.51-0.87-2.62-0.87    c-1,0-1.81,0.22-2.42,0.67c-0.61,0.44-0.92,1.01-0.92,1.7c0,0.57,0.21,1.03,0.62,1.39c0.41,0.35,0.96,0.63,1.63,0.83    c0.67,0.2,1.41,0.38,2.22,0.55c0.81,0.17,1.62,0.39,2.42,0.67c0.81,0.28,1.55,0.63,2.22,1.05c0.67,0.42,1.21,1.04,1.63,1.85    c0.41,0.81,0.62,1.77,0.62,2.9c0,1.89-0.76,3.43-2.29,4.63c-1.53,1.19-3.53,1.79-6.02,1.79c-1.4,0-2.63-0.2-3.69-0.61    s-1.9-0.95-2.51-1.64c-0.61-0.69-1.07-1.44-1.37-2.25c-0.31-0.81-0.48-1.66-0.52-2.57h4.26c0.06,0.93,0.43,1.7,1.12,2.31    C95.49,138.93,96.48,139.24,97.76,139.24z"/>
		<path class="st1" d="M123.15,121.68v4.05h-5.76v16.94h-4.32v-16.94h-5.76v-4.05H123.15z"/>
		<path class="st1" d="M137.51,121.68v20.99h-4.32v-20.99H137.51z"/>
		<path class="st1" d="M146.29,143.02c-1.73,0-3.07-0.43-4.02-1.3c-0.95-0.87-1.42-2.02-1.42-3.46c0-1.36,0.49-2.44,1.46-3.25    c0.98-0.81,2.49-1.37,4.54-1.68l4.14-0.62v-0.15c0-1.52-0.93-2.28-2.78-2.28c-1.73,0-2.69,0.63-2.87,1.89h-4.14    c0.14-1.52,0.77-2.79,1.89-3.81c1.12-1.02,2.82-1.54,5.08-1.54c2.25,0,3.94,0.5,5.08,1.51c1.14,1,1.71,2.42,1.71,4.26v7.3    c0,1.16,0.15,2.09,0.44,2.78h-4.05c-0.02,0-0.04-0.07-0.06-0.21c-0.02-0.14-0.04-0.35-0.07-0.64c-0.03-0.29-0.04-0.58-0.04-0.87    C150.23,142.33,148.6,143.02,146.29,143.02z M150.99,135.69l-3.72,0.62c-1.58,0.28-2.36,0.89-2.36,1.83    c0,1.08,0.78,1.63,2.34,1.63c1.2,0,2.13-0.31,2.78-0.95c0.65-0.63,0.98-1.47,0.98-2.51V135.69z"/>
		<path class="st1" d="M164.24,143.02c-4.22,0-6.45-1.79-6.71-5.38h4.26c0.04,0.57,0.27,1.05,0.69,1.43    c0.42,0.38,1.05,0.58,1.88,0.58c0.79,0,1.39-0.13,1.8-0.38c0.41-0.26,0.62-0.6,0.62-1.03c0-0.47-0.3-0.82-0.89-1.05    c-0.59-0.23-1.31-0.41-2.14-0.55c-0.84-0.14-1.68-0.33-2.53-0.56c-0.85-0.24-1.57-0.7-2.16-1.39c-0.59-0.69-0.89-1.61-0.89-2.75    c0-1.44,0.57-2.65,1.71-3.64c1.14-0.99,2.64-1.48,4.49-1.48c2.11,0,3.68,0.53,4.7,1.6c1.02,1.06,1.58,2.28,1.66,3.64h-4.05    c-0.04-0.53-0.26-0.98-0.67-1.33c-0.4-0.35-0.96-0.53-1.67-0.53c-0.67,0-1.19,0.14-1.57,0.43c-0.37,0.29-0.56,0.65-0.56,1.08    c0,0.47,0.3,0.82,0.89,1.03c0.59,0.22,1.31,0.39,2.14,0.52c0.84,0.13,1.67,0.31,2.51,0.55c0.84,0.24,1.55,0.71,2.14,1.42    c0.59,0.71,0.89,1.66,0.89,2.84c0,1.44-0.59,2.63-1.76,3.56C167.87,142.56,166.26,143.02,164.24,143.02z"/>
		<path class="st1" d="M177.48,124.46c-0.47,0.47-1.08,0.71-1.83,0.71c-0.75,0-1.36-0.24-1.83-0.71c-0.47-0.47-0.71-1.07-0.71-1.8    c0-0.73,0.24-1.33,0.71-1.82c0.47-0.48,1.08-0.72,1.83-0.72c0.75,0,1.36,0.24,1.83,0.72c0.47,0.48,0.71,1.09,0.71,1.82    C178.19,123.39,177.95,123.99,177.48,124.46z M173.55,142.67v-15.49h4.2v15.49H173.55z"/>
		<g>
			<path class="st1" d="M166.28,147.58c-0.29,0.47-0.72,0.76-1.29,0.87c-0.57,0.11-1.08-0.01-1.52-0.35     c-0.44-0.34-0.72-0.82-0.83-1.44c-0.12-0.62-0.03-1.18,0.25-1.66c0.28-0.48,0.71-0.78,1.29-0.88c0.57-0.11,1.08,0.01,1.52,0.36     c0.44,0.35,0.72,0.83,0.84,1.46C166.65,146.56,166.56,147.11,166.28,147.58z"/>
			<path class="st1" d="M163.36,148.73c-0.11,0.52-0.32,1.17-0.73,1.8c-0.59,0.9-1.22,1.15-1.18,1.23c0.12,0.26,3.75-0.99,4.68-3.65     c0.1-0.28,0.3-0.88,0.05-1.28c-0.3-0.5-1.19-0.54-2.26-0.1"/>
		</g>
	</g>
	<g>
		<path d="M239.99,139.49c-1.03-1.13-2.02-2.2-3.05-3.32c3.7-3.92,5.89-8.62,6.52-14.05c1.51,0.06,2.97,0.13,4.49,0.19    C247.25,128.97,244.59,134.66,239.99,139.49z"/>
		<path d="M201.35,135.66c-0.99,1.13-1.95,2.22-2.97,3.38c-4.71-4.63-7.53-10.25-8.45-16.9c1.5-0.11,2.97-0.21,4.48-0.32    c0.38,2.63,1.14,5.15,2.34,7.53C197.95,131.71,199.5,133.81,201.35,135.66z"/>
		<path d="M234.63,138.29c1.03,1.13,2.01,2.2,3.03,3.33c-5.17,4.18-11.08,6.35-17.79,6.49c0.06-1.5,0.12-2.95,0.19-4.49    C225.48,143.46,230.35,141.71,234.63,138.29z"/>
		<path d="M199.61,140.29c1.1-1.08,2.14-2.1,3.22-3.15c4.04,3.6,8.81,5.63,14.25,6.1c-0.02,1.5-0.04,2.95-0.05,4.49    C210.35,147.23,204.57,144.74,199.61,140.29z"/>
		<path d="M234.86,133.91c-1.01-1.1-2-2.17-2.9-3.16c0.86-1.4,1.85-2.74,2.53-4.21c0.69-1.47,1.08-3.09,1.63-4.72    c1.3,0.05,2.76,0.12,4.23,0.18C240.48,125.19,237.61,131.42,234.86,133.91z"/>
		<path d="M203.35,133.31c-2.64-2.06-5.7-8.15-5.84-11.72c1.45-0.1,2.89-0.21,4.42-0.32c0.59,3.31,2.03,6.24,4.34,8.67    C205.29,131.08,204.33,132.18,203.35,133.31z"/>
		<path d="M229.52,132.75c1.03,1.12,2.01,2.2,3.04,3.32c-3.62,2.83-7.73,4.34-12.38,4.52c0.06-1.54,0.13-2.99,0.19-4.49    C223.75,135.89,226.8,134.79,229.52,132.75z"/>
		<path d="M208.24,131.88c2.56,2.15,5.55,3.43,8.93,3.81c-0.02,1.5-0.04,2.95-0.05,4.49c-4.63-0.41-8.64-2.15-12.12-5.17    C206.09,133.96,207.14,132.95,208.24,131.88z"/>
		<path d="M226.82,125.11c0.55-1.18,1.11-2.38,1.69-3.63c1.36,0.06,2.83,0.12,4.36,0.18c-0.39,2.57-1.45,4.78-3.07,6.68    C228.79,127.25,227.79,126.16,226.82,125.11z"/>
		<path d="M206.04,120.54c1.53,0.06,3,0.13,4.37,0.18c0.47,1.28,0.92,2.52,1.38,3.77c-1.02,0.93-2.12,1.94-3.24,2.96    C207.08,125.42,206.25,123.12,206.04,120.54z"/>
		<path d="M220.69,128.67c1.31-0.48,2.53-0.93,3.74-1.37c0.93,1.02,1.94,2.12,2.97,3.24c-2.02,1.45-4.31,2.3-6.9,2.49    C220.57,131.52,220.63,130.05,220.69,128.67z"/>
		<path d="M214.02,126.87c1.13,0.53,2.32,1.08,3.59,1.68c-0.06,1.34-0.12,2.81-0.18,4.36c-2.56-0.39-4.77-1.44-6.67-3.05    C211.87,128.84,212.96,127.83,214.02,126.87z"/>
		<path d="M219.24,124.16c-1.03-0.01-1.86-0.86-1.85-1.89c0.01-1.03,0.87-1.86,1.89-1.85c1.03,0.01,1.86,0.86,1.85,1.89    C221.12,123.35,220.28,124.17,219.24,124.16z"/>
		<circle class="st0" cx="219.12" cy="118.6" r="15.16"/>
		<path class="st2" d="M224.33,118.06c-0.13,2.18-1.75,4.3-3.78,4.77c-0.81,0.19-1.03,0.55-0.97,1.29c0.01,0.12-0.01,0.24-0.01,0.36    c-0.06,2.09-0.41,2.06,1.78,2.19c0.41,0.02,0.98-0.04,0.92,0.6c-0.05,0.58-0.57,0.54-1.01,0.52c-1.7-0.08-3.41-0.15-5.11-0.22    c-0.43-0.02-0.83-0.12-0.84-0.61c-0.01-0.59,0.48-0.49,0.86-0.52c0.68-0.05,1.59,0.38,1.99-0.24c0.48-0.76,0.23-1.8,0.26-2.72    c0.02-0.61-0.49-0.6-0.9-0.72c-2.12-0.61-3.64-2.73-3.52-4.91c0.02-0.4-0.14-1.02,0.45-1.08c0.67-0.06,0.6,0.55,0.64,1.03    c0.17,2.1,1.14,3.36,3.01,3.93c2.19,0.67,4.57-0.87,4.98-3.22c0.03-0.2,0.02-0.41,0.07-0.6c0.1-0.38,0.19-0.87,0.71-0.77    C224.33,117.27,224.32,117.74,224.33,118.06z"/>
		<path class="st2" d="M219.12,120.51L219.12,120.51c-1.99-0.08-3.54-1.77-3.46-3.76l0.16-3.79c0.08-1.99,1.77-3.54,3.76-3.46h0    c1.99,0.08,3.54,1.77,3.46,3.76l-0.16,3.79C222.8,119.05,221.12,120.59,219.12,120.51z"/>
		<circle class="st0" cx="194.4" cy="113.75" r="2.64"/>
		<circle class="st0" cx="197.04" cy="103.2" r="2.64"/>
		<circle class="st0" cx="204.96" cy="96.61" r="2.64"/>
		<circle class="st0" cx="215.51" cy="92.65" r="2.64"/>
		<circle class="st0" cx="227.97" cy="93.2" r="2.47"/>
		<circle class="st0" cx="236.33" cy="97.73" r="2.47"/>
		<circle class="st0" cx="241.93" cy="105.6" r="2.47"/>
		<circle class="st0" cx="243.75" cy="114.41" r="2.47"/>
	</g>
</g>
</svg>