<svg version="1.1" id="Layer_1" xmlns="http://www.w3.org/2000/svg" xmlns:xlink="http://www.w3.org/1999/xlink" x="0px" y="0px" style="enable-background:new 0 0 2880 1800;" xml:space="preserve" viewBox="44.73 168.18 2790.28 1463.27">
<style type="text/css">
	.st0{fill-rule:evenodd;clip-rule:evenodd;fill:#FFFFFF;}
</style>
<g>
	<path class="st0" d="M1349.91,1631.43c-14.95-1.92-29.97-3.44-44.86-5.82c-86.25-13.76-166.98-44.44-244.62-85.11   c-63.69-33.39-123.14-73.5-179-119.16c-32.08-26.21-63.47-53.58-93.02-82.77c-31.19-30.83-60.51-63.76-89.37-96.94   c-31.23-35.9-58.57-74.93-82.5-116.5c-2.78-4.86-2.86-7.53,2.27-10.51c31.63-18.47,63.04-37.35,94.77-55.68   c4.5-2.6,10.31-3.91,15.51-3.92c87.31-0.23,174.61-0.21,261.9-0.03c4.78,0.01,10.14,1.12,14.26,3.52   c32.68,18.94,65.04,38.39,97.68,57.4c4.19,2.42,3.58,5.29,2.81,8.77c-5.59,25.57-8.23,51.48-7.72,77.69   c0.83,41.3,9.77,80.97,22.31,119.98c15.48,48.15,40.18,91.39,65.8,134.16c19.72,32.94,43.91,62.23,69.19,90.63   c27.69,31.13,58.36,58.55,93.19,80.86c0.66,0.41,1.22,0.99,1.84,1.51C1350.23,1630.13,1350.06,1630.77,1349.91,1631.43z"/>
	<path class="st0" d="M842.62,644.69c0,10.35,0,19.97,0,29.61c0,29.92,0.08,59.84-0.12,89.73c-0.04,3.54-0.98,7.46-2.68,10.54   c-44.52,80.59-89.07,161.19-134.13,241.47c-3.39,6.02-10.02,10.68-16.08,14.4c-29.43,18.12-59.22,35.65-88.78,53.58   c-3.91,2.35-6.44,2.6-9.98-1.01c-31.07-31.89-68.48-53.04-109.18-68.45c-41.47-15.67-84.46-22.95-128.43-26.04   c-30.7-2.16-61.35-1.94-91.85,0.74c-65.92,5.76-129.96,20.36-190.88,47.87c-8.38,3.76-16.39,8.43-24.54,12.71   c-0.43-0.5-0.83-0.99-1.23-1.47c8.77-11.87,17.35-23.86,26.29-35.55c26.91-35.08,57.03-66.94,89.44-96.63   c55.46-50.8,117.11-91.9,181.56-129.1c40.37-23.35,83.19-40.79,125.72-58.97c64.92-27.74,131.92-48.69,200.69-63.45   c43.32-9.3,86.87-17.44,131.16-19.85C813.61,644.05,827.69,644.69,842.62,644.69z"/>
	<path class="st0" d="M1185,168.2c3.9,9.96,8.02,19.79,11.67,29.85c13.5,37.15,28.17,74.04,35.24,113.2   c7.24,39.9,13.46,80.05,18.71,120.29c6.22,47.73,5.26,95.96,3.66,143.91c-1.1,33.28-6.05,66.43-9.84,99.57   c-2.82,24.74-5.78,49.48-10.01,74c-5.2,30.28-11.08,60.45-17.92,90.37c-13.52,59.1-32.14,116.54-55.95,172.06   c-10.86,25.28-22.97,49.97-34.76,75.47c-22.82-13.63-45.01-26.85-67.22-40.1c-11.4-6.82-22.97-13.36-34.11-20.65   c-4.2-2.74-8.33-6.64-10.8-11.05c-42.72-76.25-84.92-152.83-127.99-228.87c-6.27-11.05-8.51-21.82-8.42-34.03   c0.21-33.68,0.32-67.37,0.01-101.04c-0.06-6.18,1.96-8.86,7.3-10.41c38.02-10.95,71.38-31.1,102.16-56.16   c39.06-31.76,70.9-70.56,96.93-113.85c19.73-32.83,36.85-67.6,52.57-102.72c23.24-52.05,37.98-107.03,44.85-164.09   c1.39-11.59,1.57-23.39,2.34-35.11C1183.92,168.63,1184.46,168.42,1185,168.2z"/>
	<path class="st0" d="M1351.07,1116.28c0-156.76,0-314.03,0-471.77c1.75-0.14,3.5-0.41,5.23-0.41   c56.16,0.13,112.31-0.13,168.47,0.59c27.83,0.36,55.02,4.96,80.77,17.23c44.41,21.13,57.59,69.01,49.83,107.64   c-7.24,36.18-27.12,62.52-59.52,78.51c-2.2,1.09-4.1,2.88-7.82,5.58c4.44,1.51,6.88,2.34,9.33,3.15   c34.84,11.47,64.06,31.52,75.16,68.71c19.2,64.39,3.47,126.78-56.91,163.52c-27.41,16.71-56.91,26.5-88.47,27   C1468.76,1116.92,1410.35,1116.28,1351.07,1116.28z M1415.03,976.15c0,26.61,0.14,53.22-0.13,79.83c-0.04,6.18,1.8,8.12,7.77,8.06   c24.09-0.33,48.19,0.07,72.28-0.26c22.53-0.3,45-1.99,66.17-10.88c22.09-9.29,39.64-23.92,47.71-48.09   c4.97-14.89,5.9-30.36,3.89-45.99c-3.5-27.12-15.97-47.53-40.63-59.05c-17.74-8.32-36.66-10.71-55.78-10.97   c-31.14-0.43-62.3,0.06-93.41-0.3c-6.52-0.07-8.05,2.31-7.98,8.53C1415.16,923.4,1415.03,949.77,1415.03,976.15z M1415.03,766.95   c0,20.48,0.14,40.97-0.09,61.45c-0.08,5.82,1.18,8.37,7.51,8.29c27.5-0.34,54.99,0.41,82.48-0.43c12.35-0.39,25.04-2.08,36.81-5.82   c22.67-7.15,41.6-19.78,45.82-46.65c1.57-9.91,1.73-20.12,1.95-30.19c0.44-20.66-8.87-35.42-26.48-44.7   c-15.33-8.08-31.95-10.68-48.81-10.94c-30.66-0.48-61.35-0.01-92.03-0.27c-5.84-0.06-7.32,2.18-7.25,7.83   C1415.16,726,1415.03,746.48,1415.03,766.95z"/>
	<path class="st0" d="M1744.87,644.48c101.79,0,202.88,0,304.51,0c0,18.16,0,35.91,0,54.75c-3.04,0-5.9,0-8.75,0   c-74.12,0-148.24-0.01-222.36,0c-9.29,0-9.29,0.03-9.29,9.71c-0.01,37.69,0.13,75.37-0.17,113.06c-0.04,6.94,2.16,8.71,8.58,8.7   c68.91-0.2,137.79-0.13,206.65-0.13c2.5,0,4.99,0,8.04,0c0,18.24,0,36.21,0,55.22c-2.85,0-5.73,0-8.59,0   c-68.44,0-136.86,0-205.29,0c-9.22,0-9.22,0.04-9.22,9.78c-0.01,52.51-0.01,105.03,0,157.59c0,9.24,0.01,9.27,9.08,9.27   c74.35,0.02,148.7,0,223.03,0.02c8.78,0,8.78,0.03,8.78,9.31c0.01,15.02,0.01,30.03,0.01,45.41c-102.1,0-203.36,0-305.02,0   C1744.87,959.63,1744.87,802.41,1744.87,644.48z"/>
	<path class="st0" d="M2407.49,743.41c-4.69-3.35-7.83-5.49-10.86-7.73c-25.77-18.97-53.27-34.35-84.39-41.18   c-36.97-8.1-73.61-7.8-108.44,9.98c-22.58,11.55-35.22,30.1-36.4,56.8c-1.28,28.93,10.01,50.4,33.83,65.23   c14.3,8.9,30.38,11.89,46.21,16c37.12,9.57,75.32,15.27,110.77,31.07c38.9,17.3,63.89,46.93,68.09,91.22   c4.76,50.25-11.62,92.75-50.5,124.38c-31.73,25.8-68.7,35.49-108.61,37.19c-53.41,2.25-104.19-8.58-153.48-28.82   c-17.61-7.23-17.62-7.15-17.62-26.38c0-17.41-0.05-34.84,0.07-52.28c0.01-2.65,0.92-5.29,1.43-7.93c2.63,1.09,5.85,1.48,7.79,3.32   c16.11,15.3,34.85,26.34,54.58,35.51c35.07,16.31,71.41,25.01,110.45,20.82c21.13-2.3,41.31-5.53,59.16-18.27   c43.22-30.82,36-89.23,9.8-112.23c-15.94-14-35.28-19.85-55.03-24.71c-30.86-7.64-62.01-14.21-92.53-23.09   c-23.57-6.87-44.96-19.05-61.98-38.08c-16.74-18.7-26.74-40.52-28.93-66.11c-2.45-28.56,0.11-56.05,16.05-80.56   c20.45-31.47,48.56-52.31,83.58-63.1c38.49-11.85,77.58-10.54,116.8-4.93c29.56,4.23,58.18,12.08,85.82,23.77   c4.18,1.77,5.82,3.97,5.74,8.83c-0.26,19.31-0.01,38.63-0.1,57.93C2408.79,733.75,2408.09,737.46,2407.49,743.41z"/>
	<path class="st0" d="M2443.98,699.23c0-18.48,0-36.05,0-54.55c2.56-0.2,5.17-0.55,7.79-0.55c124.79-0.05,249.58,0.01,374.39-0.17   c6.69-0.01,9.1,1.54,8.81,8.97c-0.62,15.02-0.18,30.06-0.18,46.31c-3.38,0-6.22,0-9.06,0c-48.42,0-96.85,0.14-145.26-0.14   c-6.51-0.03-8.41,1.71-8.41,8.57c0.19,133.3,0.16,266.61,0.16,399.89c0,3.01,0,6.03,0,9.53c-21.77,0-42.99,0-65.02,0   c0-3.51,0-6.74,0-9.97c0-132.35,0-264.71,0-397.08c0-10.8,0-10.8-10.34-10.8c-47.74,0-95.47,0-143.21,0   C2450.73,699.23,2447.78,699.23,2443.98,699.23z"/>
	<path class="st0" d="M859.42,881.97c37.25,0.05,67.06,29.93,66.32,67.18c-0.69,34.23-24.75,69.78-71.29,68.17   c-30.74-1.05-59.61-32.49-59.94-66.83C794.14,910.96,825.99,880.57,859.42,881.97z"/>
	<path class="st0" d="M2685.64,1301.57c-1.34,0.66-1.74,0.99-2.13,1.01c-14.58,1.3-14.56,1.28-19.04-13.21   c-1.71-5.59-2.97-11.42-5.38-16.67c-1.07-2.31-4.4-4.85-6.8-4.95c-12.25-0.5-24.54-0.11-36.81-0.3c-3.92-0.07-5.43,1.47-6.45,5.36   c-2.64,9.93-5.85,19.74-8.81,29.55c-5.61,0-10.73,0-16.79,0c5.37-16.6,10.5-32.59,15.76-48.53c7.75-23.57,15.78-47.03,23.24-70.71   c1.82-5.73,4.42-7.94,10.1-7.26c4.03,0.5,8.16,0.1,11.92,0.1C2658.3,1218.21,2672,1259.94,2685.64,1301.57z M2635.59,1197.72   c-0.88-0.02-1.78-0.03-2.66-0.06c-5.74,18.06-11.48,36.09-17.5,54.99c12.62,0,24.14,0,37.46,0   C2646.88,1233.54,2641.26,1215.63,2635.59,1197.72z"/>
	<path class="st0" d="M2691.61,1275.51c8.12,4.51,14.89,8.7,22.04,12.11c9.45,4.54,19.54,4.07,29.4,1.81   c9.5-2.21,13.94-8.76,14.44-19.56c0.46-10.08-2.48-15.25-12.13-18.64c-8.55-3.01-17.48-4.89-26.17-7.54   c-19.49-5.9-26.47-15.37-26.07-34.82c0.34-16.46,11.03-28.91,27.97-33.63c16.33-4.55,31.47,0.23,46.54,5.61   c1.3,0.48,2.46,3.18,2.59,4.92c0.34,4.89,0.14,9.85,0.14,16.04c-2.2-1.21-3.68-1.87-5-2.76c-11.36-7.77-23.65-11.54-37.38-9.73   c-10.06,1.36-16.77,7.24-18,16.21c-1.38,10.06,3.21,18.31,13.3,21.85c8.33,2.94,17.15,4.41,25.62,7.06   c10.71,3.38,20.15,8.76,24.32,20.56c7.18,20.42-6.6,44.81-27.61,49.11c-16.34,3.35-32.01,0.87-47.46-5   c-5.12-1.97-7.21-4.88-6.61-10.46C2691.96,1284.7,2691.61,1280.69,2691.61,1275.51z"/>
	<path class="st0" d="M2543.13,1189.65c-5.02-0.27-9.65-0.51-14.58-0.79c0-4.31,0-8.03,0-12.3c15.36,0,30.68,0,46.64,0   c0,3.82,0,7.83,0,12.14c-1.22,0.2-2.31,0.48-3.4,0.54c-11.23,0.54-11.23,0.54-11.23,12.43c0,26.61,0,53.21,0,79.8   c0,9.17,0.01,9.2,8.77,9.26c1.79,0.03,3.57,0,5.92,0c0,4.05,0,7.62,0,11.61c-15.55,0-30.87,0-46.59,0c0-3.78,0-7.22,0-11.24   c4.73-0.24,9.39-0.46,14.48-0.71C2543.13,1256.67,2543.13,1223.43,2543.13,1189.65z"/>
	<path class="st0" d="M2819.98,1290.39c4.87,0.21,9.31,0.41,14.29,0.66c0,3.68,0,7.09,0,11.1c-15.16,0-30.48,0-46.38,0   c0-3.42,0-7,0-11.28c4.58,0,9.04,0,14.08,0c0-33.89,0-67.15,0-100.4c-4.81-1.02-9.9-1.2-13.92-3.48c-1.54-0.86-0.6-6.49-0.83-10.5   c15.88,0,31.19,0,47.04,0c0,3.89,0,7.74,0,12.28c-4.64,0.32-9.26,0.61-14.29,0.97C2819.98,1223.41,2819.98,1256.66,2819.98,1290.39   z"/>
</g>
</svg>